<?xml version="1.0" encoding="utf-8"?>
<!-- Generator: Adobe Illustrator 16.0.0, SVG Export Plug-In . SVG Version: 6.00 Build 0)  -->
<!DOCTYPE svg PUBLIC "-//W3C//DTD SVG 1.1//EN" "http://www.w3.org/Graphics/SVG/1.1/DTD/svg11.dtd">
<svg version="1.1" xmlns="http://www.w3.org/2000/svg" xmlns:xlink="http://www.w3.org/1999/xlink" x="0px" y="0px" width="1366px"
	 height="768px" viewBox="0 0 1366 768" enable-background="new 0 0 1366 768" xml:space="preserve">
<pattern  x="-1677.168" y="-1959.961" width="515" height="1784.878" patternUnits="userSpaceOnUse" id="Nouveau_motif" viewBox="0 -1784.878 515 1784.878" overflow="visible">
	<g>
		<polygon fill="none" points="0,-1784.878 515,-1784.878 515,0 0,0 		"/>
		<g>
			<polygon fill="#00FFFF" points="431.422,0 418.591,0 418.591,-1784.878 431.422,-1784.878 			"/>
			<polygon fill="#00FFFF" points="457.084,0 444.253,0 444.253,-1784.878 457.084,-1784.878 			"/>
			<polygon fill="#00FFFF" points="482.746,0 469.915,0 469.915,-1784.878 482.746,-1784.878 			"/>
			<polygon fill="#00FFFF" points="508.408,0 495.577,0 495.577,-1784.878 508.408,-1784.878 			"/>
		</g>
		<g>
			<polygon fill="#00FFFF" points="328.422,0 315.591,0 315.591,-1784.878 328.422,-1784.878 			"/>
			<polygon fill="#00FFFF" points="354.084,0 341.253,0 341.253,-1784.878 354.084,-1784.878 			"/>
			<polygon fill="#00FFFF" points="379.746,0 366.915,0 366.915,-1784.878 379.746,-1784.878 			"/>
			<polygon fill="#00FFFF" points="405.408,0 392.577,0 392.577,-1784.878 405.408,-1784.878 			"/>
		</g>
		<g>
			<polygon fill="#00FFFF" points="225.422,0 212.591,0 212.591,-1784.878 225.422,-1784.878 			"/>
			<polygon fill="#00FFFF" points="251.084,0 238.253,0 238.253,-1784.878 251.084,-1784.878 			"/>
			<polygon fill="#00FFFF" points="276.746,0 263.915,0 263.915,-1784.878 276.746,-1784.878 			"/>
			<polygon fill="#00FFFF" points="302.408,0 289.577,0 289.577,-1784.878 302.408,-1784.878 			"/>
		</g>
		<g>
			<polygon fill="#00FFFF" points="122.422,0 109.591,0 109.591,-1784.878 122.422,-1784.878 			"/>
			<polygon fill="#00FFFF" points="148.084,0 135.253,0 135.253,-1784.878 148.084,-1784.878 			"/>
			<polygon fill="#00FFFF" points="173.746,0 160.915,0 160.915,-1784.878 173.746,-1784.878 			"/>
			<polygon fill="#00FFFF" points="199.408,0 186.577,0 186.577,-1784.878 199.408,-1784.878 			"/>
		</g>
		<g>
			<polygon fill="#00FFFF" points="19.422,0 6.591,0 6.591,-1784.878 19.422,-1784.878 			"/>
			<polygon fill="#00FFFF" points="45.084,0 32.253,0 32.253,-1784.878 45.084,-1784.878 			"/>
			<polygon fill="#00FFFF" points="70.746,0 57.915,0 57.915,-1784.878 70.746,-1784.878 			"/>
			<polygon fill="#00FFFF" points="96.408,0 83.577,0 83.577,-1784.878 96.408,-1784.878 			"/>
		</g>
	</g>
</pattern>
<pattern  x="-1677.168" y="-1959.961" width="515" height="1784.878" patternUnits="userSpaceOnUse" id="Nouvelle_nuance_de_motif_2" viewBox="0 -1784.878 515 1784.878" overflow="visible">
	<g>
		<polygon fill="none" points="0,-1784.878 515,-1784.878 515,0 0,0 		"/>
		<g>
			<polygon fill="#FF0000" points="431.422,0 418.591,0 418.591,-1784.878 431.422,-1784.878 			"/>
			<polygon fill="#FF0000" points="457.084,0 444.253,0 444.253,-1784.878 457.084,-1784.878 			"/>
			<polygon fill="#FF0000" points="482.746,0 469.915,0 469.915,-1784.878 482.746,-1784.878 			"/>
			<polygon fill="#FF0000" points="508.408,0 495.577,0 495.577,-1784.878 508.408,-1784.878 			"/>
		</g>
		<g>
			<polygon fill="#FF0000" points="328.422,0 315.591,0 315.591,-1784.878 328.422,-1784.878 			"/>
			<polygon fill="#FF0000" points="354.084,0 341.253,0 341.253,-1784.878 354.084,-1784.878 			"/>
			<polygon fill="#FF0000" points="379.746,0 366.915,0 366.915,-1784.878 379.746,-1784.878 			"/>
			<polygon fill="#FF0000" points="405.408,0 392.577,0 392.577,-1784.878 405.408,-1784.878 			"/>
		</g>
		<g>
			<polygon fill="#FF0000" points="225.422,0 212.591,0 212.591,-1784.878 225.422,-1784.878 			"/>
			<polygon fill="#FF0000" points="251.084,0 238.253,0 238.253,-1784.878 251.084,-1784.878 			"/>
			<polygon fill="#FF0000" points="276.746,0 263.915,0 263.915,-1784.878 276.746,-1784.878 			"/>
			<polygon fill="#FF0000" points="302.408,0 289.577,0 289.577,-1784.878 302.408,-1784.878 			"/>
		</g>
		<g>
			<polygon fill="#FF0000" points="122.422,0 109.591,0 109.591,-1784.878 122.422,-1784.878 			"/>
			<polygon fill="#FF0000" points="148.084,0 135.253,0 135.253,-1784.878 148.084,-1784.878 			"/>
			<polygon fill="#FF0000" points="173.746,0 160.915,0 160.915,-1784.878 173.746,-1784.878 			"/>
			<polygon fill="#FF0000" points="199.408,0 186.577,0 186.577,-1784.878 199.408,-1784.878 			"/>
		</g>
		<g>
			<polygon fill="#FF0000" points="19.422,0 6.591,0 6.591,-1784.878 19.422,-1784.878 			"/>
			<polygon fill="#FF0000" points="45.084,0 32.253,0 32.253,-1784.878 45.084,-1784.878 			"/>
			<polygon fill="#FF0000" points="70.746,0 57.915,0 57.915,-1784.878 70.746,-1784.878 			"/>
			<polygon fill="#FF0000" points="96.408,0 83.577,0 83.577,-1784.878 96.408,-1784.878 			"/>
		</g>
	</g>
</pattern>
<g id="Elements">
	<g id="Trame_Bleue" opacity="0.75">

			<pattern  id="SVGID_1_" xlink:href="#Nouveau_motif" patternTransform="matrix(0.7071 0.7071 -0.7071 0.7071 -5716.9771 1505.1416)"  opacity="0.75">
		</pattern>
		<rect fill="url(#SVGID_1_)" width="1366" height="768"/>
	</g>
	<g id="Trame_Rouge" opacity="0.75">

			<pattern  id="SVGID_2_" xlink:href="#Nouvelle_nuance_de_motif_2" patternTransform="matrix(0.7071 0.7071 -0.7071 0.7071 -5716.9771 1505.1416)"  opacity="0.75">
		</pattern>
		<rect fill="url(#SVGID_2_)" width="1366" height="768"/>
	</g>
</g>
<g id="Fond_Blanc">
	<rect id="Fond_Blanc_tracé" x="20" y="20" fill="#FFFFFF" width="1326" height="728"/>
</g>
<g id="Psyché">
	<g id="Groupe_rouge" opacity="0.75">
		<rect x="40" y="40" fill="none" stroke="#FF0000" stroke-width="10" stroke-miterlimit="10" width="1286" height="688"/>
		<rect x="60" y="60" fill="none" stroke="#FF0000" stroke-width="8" stroke-miterlimit="10" width="1246" height="648"/>
		<rect x="80" y="80" fill="none" stroke="#FF0000" stroke-width="6" stroke-miterlimit="10" width="1206" height="608"/>
		<rect x="100" y="100" fill="none" stroke="#FF0000" stroke-width="4" stroke-miterlimit="10" width="1166" height="568"/>
		<rect x="120" y="120" fill="none" stroke="#FF0000" stroke-width="2" stroke-miterlimit="10" width="1126" height="528"/>
		<rect x="140" y="140" fill="none" stroke="#FF0000" stroke-miterlimit="10" width="1086" height="488"/>
	</g>
	<g id="Groupe_bleu" opacity="0.75">
		<rect x="44" y="44" fill="none" stroke="#00FFFF" stroke-width="10" stroke-miterlimit="10" width="1286" height="688"/>
		<rect x="64" y="64" fill="none" stroke="#00FFFF" stroke-width="8" stroke-miterlimit="10" width="1246" height="648"/>
		<rect x="84" y="84" fill="none" stroke="#00FFFF" stroke-width="6" stroke-miterlimit="10" width="1206" height="608"/>
		<rect x="104" y="104" fill="none" stroke="#00FFFF" stroke-width="4" stroke-miterlimit="10" width="1166" height="568"/>
		<rect x="124" y="124" fill="none" stroke="#00FFFF" stroke-width="2" stroke-miterlimit="10" width="1126" height="528"/>
		<rect x="144" y="144" fill="none" stroke="#00FFFF" stroke-miterlimit="10" width="1086" height="488"/>
	</g>
</g>
<g id="Typo">
	<g opacity="0.9">
		<path fill="#00FFFF" d="M329.51,461.102c0-3.596-0.757-4.729-0.757-6.055c0-1.891,2.272-3.216,4.919-3.216
			c6.244,0,10.595,3.783,10.595,8.325v70.188c0,18.162,6.055,25.351,17.216,25.351c10.595,0,18.542-8.324,18.542-19.295
			c0-17.028-13.054-22.137-24.975-22.137c-3.404,0-6.62-14.188-0.946-14.188c8.894,0,30.65-5.865,30.65-33.299
			c0-14.379-9.271-29.133-32.543-29.133c-30.457,0-42.756,20.053-42.756,43.133c0,16.648,6.812,22.514,7.191,23.08
			c2.08-0.566,2.838,0.76,2.838,2.65c0,3.406-5.109,15.892-10.597,11.73c-3.027-2.837-13.812-14.191-13.812-36.324
			c0-35.379,23.271-58.461,56.947-58.461c28.567,0,47.297,16.081,47.297,42.947c0,20.621-10.597,33.296-24.404,40.676
			c10.971,3.215,19.864,12.675,19.864,28.945c0,18.919-14.378,32.728-33.108,32.728c-24.785,0-32.162-15.698-32.162-38.971V461.102z
			"/>
		<path fill="#00FFFF" d="M488.231,534.508c-2.27,10.217-10.026,18.729-22.89,18.729c-3.407,0-6.436-0.378-9.271-1.324
			c-4.73,8.135-11.92,13.621-22.704,13.621c-19.107,0-27.621-16.272-27.621-35.189c0-27.811,15.135-44.646,19.297-44.646
			c4.921,0,8.702,10.022,3.787,13.24c-3.029,4.542-8.705,11.542-8.705,30.271c0,15.892,6.243,23.842,13.62,23.842
			c5.298,0,8.705-2.842,11.163-7.193c-8.891-7.566-13.621-20.053-13.621-33.674c0-11.92,5.108-22.136,15.323-22.136
			c8.893,0,16.082,13.433,16.082,31.784c0,7.001-0.757,13.999-2.647,20.431c1.322,0.379,2.458,0.379,3.783,0.379
			c8.133,0,12.483-6.241,13.621-13.621C478.205,524.67,490.691,523.914,488.231,534.508z M448.502,533.563
			c0.379-3.028,0.568-5.868,0.568-8.704c0-12.867-0.568-22.325-4.541-22.325c-2.08,0-3.218,3.028-3.218,8.892
			C441.312,519.938,444.15,527.888,448.502,533.563z"/>
		<path fill="#00FFFF" d="M477.441,497.238c0-3.595-0.754-4.729-0.754-6.055c0-1.893,2.268-3.216,4.918-3.216
			c6.242,0,10.217,3.783,10.217,8.324v8.513c5.105-10.594,11.918-18.729,21.188-18.729c12.675,0,15.702,10.404,15.702,19.107v39.161
			c0,1.705,0,8.706,4.919,8.706c7.566,0,10.972-12.109,12.674-20.436c0.759-3.973,2.65-5.675,4.544-5.675
			c3.024,0,6.62,4.162,6.62,7.755c0,0.19,0,0.568-0.188,1.326c-3.217,12.485-10.784,29.513-27.055,29.513
			c-10.028,0-15.895-8.133-15.895-17.785v-38.403c0-5.865-0.374-10.784-3.97-10.784c-5.487,0-17.217,16.272-18.54,31.217v27.623
			c0,3.592,0.188,8.133-5.298,8.133c-3.784,0-9.083-1.323-9.083-8.324V497.238z"/>
		<path fill="#00FFFF" d="M545.734,497.238c0-3.595-0.755-4.729-0.755-6.055c0-1.893,2.27-3.216,4.917-3.216
			c6.246,0,10.217,3.783,10.217,8.324v8.513c5.106-10.594,11.919-18.729,21.19-18.729c12.675,0,15.699,10.404,15.699,19.107v39.161
			c0,1.705,0,8.706,4.921,8.706c7.567,0,10.972-12.109,12.676-20.436c0.757-3.973,2.649-5.675,4.54-5.675
			c3.027,0,6.622,4.162,6.622,7.755c0,0.19,0,0.568-0.188,1.326c-3.216,12.485-10.784,29.513-27.054,29.513
			c-10.027,0-15.893-8.133-15.893-17.785v-38.403c0-5.865-0.379-10.784-3.972-10.784c-5.488,0-17.216,16.272-18.542,31.217v27.623
			c0,3.592,0.189,8.133-5.296,8.133c-3.785,0-9.083-1.323-9.083-8.324V497.238z"/>
		<path fill="#00FFFF" d="M629.542,541.316c2.646,6.433,7.755,11.734,17.593,11.734c14.756,0,20.813-12.301,23.082-23.842
			c1.703-8.513,12.297-4.729,11.54,1.894c-1.325,11.539-8.892,34.432-36.702,34.432c-17.217,0-33.486-13.812-33.486-37.459
			c0-24.028,14.38-41.999,28.946-41.999c10.594,0,17.028,7.755,17.028,19.107C657.543,519.184,647.894,535.831,629.542,541.316z
			 M627.271,530.913c9.459-4.353,15.513-14.188,15.513-25.542c0-4.161-1.512-6.619-3.972-6.619c-9.27,0-12.109,20.81-11.731,28.755
			C627.08,528.643,627.271,529.778,627.271,530.913z"/>
		<path fill="#00FFFF" d="M742.29,477.939c0-2.648,0.757-6.053,2.08-6.053c1.324,0,1.703,1.89,7.191,1.89
			c13.621,0,30.269-8.891,30.269-23.079c0-5.108-3.406-10.407-10.596-10.407c-29.322,0-44.646,42.002-44.646,71.702
			c0,23.648,5.295,41.059,21.567,41.059c22.136,0,27.811-35.95,31.594-65.65c0.38-2.46,4.163-3.786,7.757-3.786
			c3.025,0,6.621,1.326,5.864,4.921c-0.945,4.919-2.458,16.082-2.458,30.837c0,24.784,0.945,35.378,1.703,41.431
			c0.379,0.568,0.566,0.947,0.566,1.326c0,2.459-5.487,4.54-9.65,4.54c-6.62,0-6.24-4.919-6.81-20.243
			c-5.676,11.918-17.027,21.378-30.269,21.378c-20.623,0-35.002-14.753-35.002-55.431c0-41.813,24.785-86.459,60.732-86.459
			c15.511,0,24.593,10.593,24.593,24.024c0,21.758-23.081,37.462-46.164,37.462C746.073,487.4,742.29,484.184,742.29,477.939z"/>
		<path fill="#00FFFF" d="M805.658,497.238c0-3.595-0.755-4.729-0.755-6.055c0-1.893,2.27-3.216,4.917-3.216
			c6.244,0,10.219,3.783,10.219,8.324v8.513c5.106-10.594,11.917-18.729,21.189-18.729c12.675,0,15.7,10.404,15.7,19.107v39.161
			c0,1.705,0,8.706,4.92,8.706c7.569,0,10.971-12.109,12.677-20.436c0.756-3.973,2.646-5.675,4.539-5.675
			c3.027,0,6.622,4.162,6.622,7.755c0,0.19,0,0.568-0.188,1.326c-3.219,12.485-10.786,29.513-27.057,29.513
			c-10.025,0-15.891-8.133-15.891-17.785v-38.403c0-5.865-0.377-10.784-3.973-10.784c-5.486,0-17.216,16.272-18.539,31.217v27.623
			c0,3.592,0.189,8.133-5.299,8.133c-3.783,0-9.082-1.323-9.082-8.324V497.238z"/>
		<path fill="#00FFFF" d="M873.95,497.238c0-3.595-0.754-4.729-0.754-6.055c0-1.893,2.269-3.216,4.917-3.216
			c6.244,0,10.216,3.783,10.216,8.324v8.513c5.109-10.594,11.92-18.729,21.19-18.729c12.676,0,15.703,10.404,15.703,19.107v39.161
			c0,1.705,0,8.706,4.917,8.706c7.567,0,10.972-12.109,12.676-20.436c0.758-3.973,2.649-5.675,4.541-5.675
			c3.026,0,6.622,4.162,6.622,7.755c0,0.19,0,0.568-0.188,1.326c-3.216,12.485-10.785,29.513-27.054,29.513
			c-10.028,0-15.893-8.133-15.893-17.785v-38.403c0-5.865-0.377-10.784-3.973-10.784c-5.488,0-17.217,16.272-18.542,31.217v27.623
			c0,3.592,0.19,8.133-5.296,8.133c-3.784,0-9.083-1.323-9.083-8.324V497.238z"/>
		<path fill="#00FFFF" d="M957.758,541.316c2.647,6.433,7.756,11.734,17.594,11.734c14.757,0,20.81-12.301,23.081-23.842
			c1.703-8.513,12.296-4.729,11.542,1.894c-1.323,11.539-8.892,34.432-36.705,34.432c-17.217,0-33.484-13.812-33.484-37.459
			c0-24.028,14.376-41.999,28.946-41.999c10.595,0,17.026,7.755,17.026,19.107C985.758,519.184,976.109,535.831,957.758,541.316z
			 M955.488,530.913c9.459-4.353,15.512-14.188,15.512-25.542c0-4.161-1.513-6.619-3.974-6.619c-9.269,0-12.107,20.81-11.729,28.755
			C955.298,528.643,955.488,529.778,955.488,530.913z M968.92,473.209c-1.515,2.459-4.162,3.407-6.244,3.407
			c-5.107,0-7.378-2.27-7.378-4.351c0-0.947,0.755-1.893,1.515-2.838l17.215-19.867c0.377-2.08,3.594-3.594,6.243-3.594
			c3.595,0,7.759,2.269,7.759,5.486c0,1.703-1.326,2.648-2.271,3.785L968.92,473.209z"/>
		<path fill="#00FFFF" d="M1013.941,541.316c2.647,6.433,7.756,11.734,17.594,11.734c14.757,0,20.811-12.301,23.082-23.842
			c1.703-8.513,12.295-4.729,11.54,1.894c-1.322,11.539-8.89,34.432-36.702,34.432c-17.217,0-33.486-13.812-33.486-37.459
			c0-24.028,14.377-41.999,28.943-41.999c10.6,0,17.029,7.755,17.029,19.107C1041.941,519.184,1032.293,535.831,1013.941,541.316z
			 M1011.673,530.913c9.457-4.353,15.511-14.188,15.511-25.542c0-4.161-1.513-6.619-3.974-6.619
			c-9.269,0-12.108,20.81-11.729,28.755C1011.481,528.643,1011.673,529.778,1011.673,530.913z"/>
	</g>
	<g opacity="0.9">
		<path fill="#FF0000" d="M308.671,461.102c0-3.596-0.802-4.729-0.802-6.055c0-1.891,2.408-3.216,5.21-3.216
			c6.615,0,11.225,3.783,11.225,8.325v70.188c0,18.162,6.413,25.351,18.237,25.351c11.224,0,19.643-8.324,19.643-19.295
			c0-17.028-13.828-22.137-26.458-22.137c-3.606,0-7.012-14.188-1.001-14.188c9.421,0,32.47-5.865,32.47-33.299
			c0-14.379-9.821-29.133-34.476-29.133c-32.264,0-45.293,20.053-45.293,43.133c0,16.648,7.216,22.514,7.617,23.08
			c2.205-0.566,3.008,0.76,3.008,2.65c0,3.406-5.413,15.892-11.227,11.73c-3.206-2.837-14.631-14.191-14.631-36.324
			c0-35.379,24.653-58.461,60.328-58.461c30.262,0,50.104,16.081,50.104,42.947c0,20.621-11.227,33.296-25.854,40.676
			c11.622,3.215,21.044,12.675,21.044,28.945c0,18.919-15.231,32.728-35.074,32.728c-26.256,0-34.07-15.698-34.07-38.971V461.102z"
			/>
		<path fill="#FF0000" d="M476.813,534.508c-2.404,10.217-10.621,18.729-24.247,18.729c-3.61,0-6.819-0.378-9.823-1.324
			c-5.012,8.135-12.627,13.621-24.052,13.621c-20.241,0-29.26-16.272-29.26-35.189c0-27.811,16.033-44.646,20.442-44.646
			c5.213,0,9.219,10.022,4.012,13.24c-3.209,4.542-9.221,11.542-9.221,30.271c0,15.892,6.613,23.842,14.428,23.842
			c5.611,0,9.221-2.842,11.825-7.193c-9.418-7.566-14.43-20.053-14.43-33.674c0-11.92,5.411-22.136,16.233-22.136
			c9.42,0,17.036,13.433,17.036,31.784c0,7.001-0.802,13.999-2.805,20.431c1.4,0.379,2.604,0.379,4.007,0.379
			c8.616,0,13.225-6.241,14.43-13.621C466.191,524.67,479.418,523.914,476.813,534.508z M434.726,533.563
			c0.401-3.028,0.602-5.868,0.602-8.704c0-12.867-0.602-22.325-4.812-22.325c-2.203,0-3.407,3.028-3.407,8.892
			C427.108,519.938,430.115,527.888,434.726,533.563z"/>
		<path fill="#FF0000" d="M465.383,497.238c0-3.595-0.799-4.729-0.799-6.055c0-1.893,2.401-3.216,5.209-3.216
			c6.613,0,10.823,3.783,10.823,8.324v8.513c5.409-10.594,12.626-18.729,22.446-18.729c13.428,0,16.634,10.404,16.634,19.107v39.161
			c0,1.705,0,8.706,5.211,8.706c8.016,0,11.623-12.109,13.426-20.436c0.804-3.973,2.808-5.675,4.814-5.675
			c3.204,0,7.013,4.162,7.013,7.755c0,0.19,0,0.568-0.201,1.326c-3.405,12.485-11.422,29.513-28.658,29.513
			c-10.625,0-16.839-8.133-16.839-17.785v-38.403c0-5.865-0.396-10.784-4.205-10.784c-5.813,0-18.239,16.272-19.641,31.217v27.623
			c0,3.592,0.198,8.133-5.612,8.133c-4.009,0-9.621-1.323-9.621-8.324V497.238z"/>
		<path fill="#FF0000" d="M537.729,497.238c0-3.595-0.799-4.729-0.799-6.055c0-1.893,2.404-3.216,5.207-3.216
			c6.618,0,10.823,3.783,10.823,8.324v8.513c5.411-10.594,12.628-18.729,22.448-18.729c13.428,0,16.631,10.404,16.631,19.107v39.161
			c0,1.705,0,8.706,5.213,8.706c8.017,0,11.623-12.109,13.429-20.436c0.802-3.973,2.808-5.675,4.809-5.675
			c3.208,0,7.017,4.162,7.017,7.755c0,0.19,0,0.568-0.2,1.326c-3.407,12.485-11.424,29.513-28.66,29.513
			c-10.622,0-16.835-8.133-16.835-17.785v-38.403c0-5.865-0.4-10.784-4.209-10.784c-5.813,0-18.236,16.272-19.642,31.217v27.623
			c0,3.592,0.201,8.133-5.609,8.133c-4.011,0-9.622-1.323-9.622-8.324V497.238z"/>
		<path fill="#FF0000" d="M626.51,541.316c2.803,6.433,8.215,11.734,18.637,11.734c15.632,0,22.048-12.301,24.451-23.842
			c1.806-8.513,13.027-4.729,12.226,1.894c-1.404,11.539-9.42,34.432-38.88,34.432c-18.238,0-35.475-13.812-35.475-37.459
			c0-24.028,15.234-41.999,30.665-41.999c11.223,0,18.039,7.755,18.039,19.107C656.173,519.184,645.95,535.831,626.51,541.316z
			 M624.104,530.913c10.021-4.353,16.434-14.188,16.434-25.542c0-4.161-1.603-6.619-4.208-6.619
			c-9.819,0-12.827,20.81-12.427,28.755C623.902,528.643,624.104,529.778,624.104,530.913z"/>
		<path fill="#FF0000" d="M745.949,477.939c0-2.648,0.802-6.053,2.203-6.053c1.402,0,1.805,1.89,7.619,1.89
			c14.43,0,32.064-8.891,32.064-23.079c0-5.108-3.608-10.407-11.225-10.407c-31.063,0-47.297,42.002-47.297,71.702
			c0,23.648,5.609,41.059,22.849,41.059c23.448,0,29.46-35.95,33.468-65.65c0.403-2.46,4.41-3.786,8.217-3.786
			c3.205,0,7.014,1.326,6.213,4.921c-1.001,4.919-2.603,16.082-2.603,30.837c0,24.784,1,35.378,1.804,41.431
			c0.4,0.568,0.6,0.947,0.6,1.326c0,2.459-5.813,4.54-10.224,4.54c-7.013,0-6.61-4.919-7.214-20.243
			c-6.012,11.918-18.037,21.378-32.064,21.378c-21.847,0-37.079-14.753-37.079-55.431c0-41.813,26.257-86.459,64.337-86.459
			c16.431,0,26.053,10.593,26.053,24.024c0,21.758-24.451,37.462-48.904,37.462C749.957,487.4,745.949,484.184,745.949,477.939z"/>
		<path fill="#FF0000" d="M813.078,497.238c0-3.595-0.8-4.729-0.8-6.055c0-1.893,2.403-3.216,5.208-3.216
			c6.615,0,10.825,3.783,10.825,8.324v8.513c5.411-10.594,12.626-18.729,22.448-18.729c13.428,0,16.632,10.404,16.632,19.107v39.161
			c0,1.705,0,8.706,5.212,8.706c8.018,0,11.622-12.109,13.43-20.436c0.801-3.973,2.803-5.675,4.808-5.675
			c3.208,0,7.016,4.162,7.016,7.755c0,0.19,0,0.568-0.2,1.326c-3.409,12.485-11.426,29.513-28.662,29.513
			c-10.619,0-16.833-8.133-16.833-17.785v-38.403c0-5.865-0.4-10.784-4.21-10.784c-5.812,0-18.236,16.272-19.64,31.217v27.623
			c0,3.592,0.202,8.133-5.612,8.133c-4.008,0-9.621-1.323-9.621-8.324V497.238z"/>
		<path fill="#FF0000" d="M885.424,497.238c0-3.595-0.799-4.729-0.799-6.055c0-1.893,2.403-3.216,5.207-3.216
			c6.617,0,10.823,3.783,10.823,8.324v8.513c5.413-10.594,12.628-18.729,22.448-18.729c13.428,0,16.635,10.404,16.635,19.107v39.161
			c0,1.705,0,8.706,5.21,8.706c8.015,0,11.622-12.109,13.428-20.436c0.802-3.973,2.806-5.675,4.811-5.675
			c3.206,0,7.015,4.162,7.015,7.755c0,0.19,0,0.568-0.2,1.326c-3.406,12.485-11.425,29.513-28.659,29.513
			c-10.622,0-16.835-8.133-16.835-17.785v-38.403c0-5.865-0.399-10.784-4.208-10.784c-5.815,0-18.24,16.272-19.644,31.217v27.623
			c0,3.592,0.203,8.133-5.609,8.133c-4.01,0-9.622-1.323-9.622-8.324V497.238z"/>
		<path fill="#FF0000" d="M974.204,541.316c2.805,6.433,8.216,11.734,18.639,11.734c15.634,0,22.044-12.301,24.45-23.842
			c1.805-8.513,13.025-4.729,12.228,1.894c-1.401,11.539-9.419,34.432-38.884,34.432c-18.238,0-35.472-13.812-35.472-37.459
			c0-24.028,15.229-41.999,30.664-41.999c11.224,0,18.037,7.755,18.037,19.107C1003.866,519.184,993.646,535.831,974.204,541.316z
			 M971.801,530.913c10.02-4.353,16.432-14.188,16.432-25.542c0-4.161-1.604-6.619-4.209-6.619c-9.819,0-12.826,20.81-12.424,28.755
			C971.6,528.643,971.801,529.778,971.801,530.913z M986.029,473.209c-1.604,2.459-4.41,3.407-6.615,3.407
			c-5.41,0-7.814-2.27-7.814-4.351c0-0.947,0.799-1.893,1.604-2.838l18.237-19.867c0.399-2.08,3.807-3.594,6.612-3.594
			c3.81,0,8.221,2.269,8.221,5.486c0,1.703-1.404,2.648-2.407,3.785L986.029,473.209z"/>
		<path fill="#FF0000" d="M1033.723,541.316c2.805,6.433,8.216,11.734,18.639,11.734c15.632,0,22.046-12.301,24.451-23.842
			c1.805-8.513,13.024-4.729,12.226,1.894c-1.4,11.539-9.418,34.432-38.88,34.432c-18.238,0-35.475-13.812-35.475-37.459
			c0-24.028,15.23-41.999,30.661-41.999c11.228,0,18.04,7.755,18.04,19.107C1063.385,519.184,1053.164,535.831,1033.723,541.316z
			 M1031.32,530.913c10.018-4.353,16.431-14.188,16.431-25.542c0-4.161-1.603-6.619-4.21-6.619c-9.818,0-12.826,20.81-12.425,28.755
			C1031.116,528.643,1031.32,529.778,1031.32,530.913z"/>
	</g>
</g>
<g id="Cadeau">
	<g id="Cadeau_Bottom">
		<path opacity="0.9" fill="#00FFFF" d="M732.568,291.577h-39.59h-19.794h-39.592h-19.794v4.949v4.928h9.897v69.282h118.771v-69.283
			h9.896v-4.927v-4.949H732.568z M633.593,360.838v-64.312h39.592v64.312H633.593z M732.568,360.838h-39.59v-64.312h39.59V360.838z"
			/>
		<path opacity="0.9" fill="#FF0000" d="M726.236,284.91h-39.59h-19.794h-39.592h-19.794v4.949v4.928h9.897v69.282h118.771v-69.283
			h9.896v-4.927v-4.949H726.236z M627.261,354.171v-64.312h39.592v64.312H627.261z M726.236,354.171h-39.59v-64.312h39.59V354.171z"
			/>
	</g>
	<g id="Cadeau_Top">
		<path opacity="0.9" fill="#00FFFF" d="M708.184,231.809c4.288-4.286,9.639-6.846,14.313-6.846c1.655,0,3.977,0.349,5.638,2.009
			c4.025,4.025,1.766,13.349-4.837,19.95c-6.796,6.795-15.938,11.47-23.883,14.546h-7.836
			C694.451,252.567,699.628,240.364,708.184,231.809L708.184,231.809z M640.078,236.862c-0.108-1.411-0.008-4.061,1.887-5.954
			c1.584-1.585,3.679-1.917,5.157-1.917c3.287,0,6.722,1.55,9.423,4.25c5.238,5.238,9.552,13.574,12.476,24.107
			c0.079,0.283,0.155,0.565,0.231,0.846c-0.281-0.073-0.564-0.15-0.85-0.23c-10.531-2.924-18.867-7.236-24.105-12.475
			C641.85,243.042,640.313,239.897,640.078,236.862L640.078,236.862z M752.363,296.11v-34.643h-29.148
			c2.803-1.992,5.492-4.209,7.956-6.673c5.165-5.166,8.62-11.521,9.729-17.896c1.215-6.988-0.568-13.477-4.892-17.802
			c-3.45-3.447-8.121-5.271-13.511-5.271c-7.675,0-15.763,3.686-22.186,10.107c-10.281,10.28-16.274,24.473-19.498,34.598
			c-2.389-10.175-7.146-23.913-16.396-33.164c-4.963-4.963-11.307-7.512-17.296-7.512c-4.896,0-9.554,1.702-13.031,5.179
			c-7.729,7.731-6.685,21.309,2.334,30.327c3.216,3.216,6.975,5.887,10.937,8.105h-33.563v34.643H752.363z M673.185,291.161h-49.488
			v-19.795h49.488V291.161z M692.979,296.11h39.59 M742.467,291.161h-49.488v-19.795h49.488V291.161z M742.467,291.161"/>
		<path opacity="0.9" fill="#FF0000" d="M701.852,225.142c4.288-4.286,9.639-6.846,14.313-6.846c1.655,0,3.977,0.349,5.638,2.009
			c4.025,4.025,1.766,13.349-4.837,19.95c-6.796,6.795-15.938,11.47-23.883,14.546h-7.836
			C688.119,245.9,693.296,233.697,701.852,225.142L701.852,225.142z M633.746,230.195c-0.108-1.411-0.008-4.061,1.887-5.954
			c1.584-1.585,3.679-1.917,5.157-1.917c3.287,0,6.722,1.55,9.423,4.25c5.238,5.238,9.552,13.574,12.476,24.107
			c0.079,0.283,0.155,0.565,0.231,0.846c-0.281-0.073-0.564-0.15-0.85-0.23c-10.531-2.924-18.867-7.236-24.105-12.475
			C635.518,236.375,633.98,233.23,633.746,230.195L633.746,230.195z M746.031,289.443v-34.643h-29.148
			c2.803-1.992,5.492-4.209,7.956-6.673c5.165-5.166,8.62-11.521,9.729-17.896c1.215-6.988-0.568-13.477-4.892-17.802
			c-3.45-3.447-8.121-5.271-13.511-5.271c-7.675,0-15.763,3.686-22.186,10.107c-10.281,10.28-16.274,24.473-19.498,34.598
			c-2.389-10.175-7.146-23.913-16.396-33.164c-4.963-4.963-11.307-7.512-17.296-7.512c-4.896,0-9.554,1.702-13.031,5.179
			c-7.729,7.731-6.685,21.309,2.334,30.327c3.216,3.216,6.975,5.887,10.937,8.105h-33.563v34.643H746.031z M666.853,284.494h-49.488
			v-19.795h49.488V284.494z M686.646,289.443h39.59 M736.135,284.494h-49.488v-19.795h49.488V284.494z M736.135,284.494"/>
	</g>
</g>
<g id="Rene">
	<g id="yeuxCerf">
		<path opacity="0.9" fill="#FF0000" d="M336.001,299.939c0,3.309-2.68,5.986-5.988,5.986c-3.307,0-5.984-2.678-5.984-5.986
			c0-3.308,2.678-5.986,5.984-5.986C333.321,293.953,336.001,296.632,336.001,299.939L336.001,299.939z M336.001,299.939"/>
		<path opacity="0.9" fill="#FF0000" d="M356.011,299.939c0,3.309-2.68,5.986-5.986,5.986c-3.309,0-5.987-2.678-5.987-5.986
			c0-3.308,2.679-5.986,5.987-5.986C353.331,293.953,356.011,296.632,356.011,299.939L356.011,299.939z M356.011,299.939"/>
		<path opacity="0.9" fill="#00FFFF" d="M342.001,305.939c0,3.309-2.68,5.986-5.988,5.986c-3.307,0-5.984-2.678-5.984-5.986
			c0-3.308,2.678-5.986,5.984-5.986C339.321,299.953,342.001,302.632,342.001,305.939L342.001,305.939z M342.001,305.939"/>
		<path opacity="0.9" fill="#00FFFF" d="M362.011,305.939c0,3.309-2.68,5.986-5.986,5.986c-3.309,0-5.987-2.678-5.987-5.986
			c0-3.308,2.679-5.986,5.987-5.986C359.331,299.953,362.011,302.632,362.011,305.939L362.011,305.939z M362.011,305.939"/>
	</g>
	<g id="teteCerf">
		<path opacity="0.9" fill="#FF0000" d="M370.016,268.568c-4.165-2.915-9.276-4.177-14.474-4.177h-31.048
			c-5.196,0-10.304,1.268-14.491,4.177c-3.087,2.145-7.683,7.422-9.419,11.848c-1.28,3.263-1.835,6.801-1.583,10.441l2.015,29.075
			c1.168,16.99,13.249,30.851,29.052,35.04c0.827,4.691,4.927,8.286,9.887,8.286h0.109c4.963,0,9.06-3.595,9.889-8.306
			c15.804-4.17,27.883-18.049,29.053-35.021l2.013-29.089c0.252-3.647-0.376-7.166-1.581-10.486
			C379.116,279.475,375.983,272.745,370.016,268.568z M366.636,290.034l-1.996,28.999c-0.899,12.854-11.668,22.867-24.557,22.867
			h-0.129c-12.89,0-23.677-10.014-24.558-22.867l-1.995-28.999c-0.215-3.057,0.863-5.885,2.969-8.128
			c2.082-2.246,5.066-3.133,8.124-3.133h31.048c3.074,0,6.041,0.887,8.126,3.133C365.772,284.149,366.853,286.978,366.636,290.034
			L366.636,290.034z M366.636,290.034"/>
		<path opacity="0.9" fill="#00FFFF" d="M376.016,274.568c-4.165-2.915-9.276-4.177-14.474-4.177h-31.048
			c-5.196,0-10.304,1.268-14.491,4.177c-3.087,2.145-7.683,7.422-9.419,11.848c-1.28,3.263-1.835,6.801-1.583,10.441l2.015,29.075
			c1.168,16.99,13.249,30.851,29.052,35.04c0.827,4.691,4.927,8.286,9.887,8.286h0.109c4.963,0,9.06-3.595,9.889-8.306
			c15.804-4.17,27.883-18.049,29.053-35.021l2.013-29.089c0.252-3.647-0.376-7.166-1.581-10.486
			C385.116,285.475,381.983,278.745,376.016,274.568z M372.636,296.034l-1.996,28.999c-0.899,12.854-11.668,22.867-24.557,22.867
			h-0.129c-12.89,0-23.677-10.014-24.558-22.867l-1.995-28.999c-0.215-3.057,0.863-5.885,2.969-8.128
			c2.082-2.246,5.066-3.133,8.124-3.133h31.048c3.074,0,6.041,0.887,8.126,3.133C371.772,290.149,372.853,292.978,372.636,296.034
			L372.636,296.034z M372.636,296.034"/>
	</g>
	<g id="brancheGauche">
		<path opacity="0.9" fill="#FF0000" d="M309.014,268.155l4.135-16.864c0.953-3.865-1.402-7.771-5.268-8.725
			c-3.882-0.931-7.767,1.406-8.721,5.29l-2.947,11.991L286.197,240l15.859-16.684c2.751-2.873,2.623-7.438-0.252-10.194
			c-2.877-2.731-7.442-2.62-10.195,0.266l-12.313,12.948l-7.696-15.231c-1.798-3.555-6.147-4.979-9.688-3.178
			c-3.561,1.802-4.981,6.45-3.185,10.015l18.104,36.172h-14.4c-3.992,0-7.209,3.213-7.209,7.195c0,3.986,3.217,7.206,7.209,7.206
			h22.006l2.392,4.853c0.809,1.614,2.21,2.805,3.919,3.435l9.835,3.614C310.418,284.03,316.315,273.497,309.014,268.155z"/>
		<path opacity="0.9" fill="#00FFFF" d="M315.014,274.155l4.135-16.864c0.953-3.865-1.402-7.771-5.268-8.725
			c-3.882-0.931-7.767,1.406-8.721,5.29l-2.947,11.991L292.197,246l15.859-16.684c2.751-2.873,2.623-7.438-0.252-10.194
			c-2.877-2.731-7.442-2.62-10.195,0.266l-12.313,12.948l-7.696-15.231c-1.798-3.555-6.147-4.979-9.688-3.178
			c-3.561,1.802-4.981,6.45-3.185,10.015l18.104,36.172h-14.4c-3.992,0-7.209,3.213-7.209,7.195c0,3.986,3.217,7.206,7.209,7.206
			h22.006l2.392,4.853c0.809,1.614,2.21,2.805,3.919,3.435l9.835,3.614C316.418,290.03,322.315,279.497,315.014,274.155z"/>
	</g>
	<g id="brancheDroite">
		<path opacity="0.9" fill="#FF0000" d="M379.436,280.357l9.834-3.627c1.708-0.644,3.109-1.89,3.918-3.52l2.393-4.696h22.005
			c3.991,0,7.208-3.22,7.208-7.206c0.02-3.982-3.217-7.195-7.191-7.195l0,0h-14.417l18.123-36.172
			c1.797-3.564,0.358-8.055-3.183-9.854c-3.542-1.783-7.892-0.454-9.692,3.111l-7.692,15.196l-12.334-12.99
			c-2.733-2.894-7.3-3.015-10.176-0.265c-2.895,2.747-3.002,7.303-0.269,10.197L393.836,240l-10.015,19.848l-2.948-12.009
			c-0.953-3.866-4.837-6.227-8.719-5.29c-3.865,0.953-6.221,4.857-5.287,8.723l4.136,16.848c-0.491,0.355-0.387,0.209-0.757,0.613
			C365.324,274.112,370.289,283.73,379.436,280.357z"/>
		<path opacity="0.9" fill="#00FFFF" d="M385.436,286.357l9.834-3.627c1.708-0.644,3.109-1.89,3.918-3.52l2.393-4.696h22.005
			c3.991,0,7.208-3.22,7.208-7.206c0.02-3.982-3.217-7.195-7.191-7.195l0,0h-14.417l18.123-36.172
			c1.797-3.564,0.358-8.055-3.183-9.854c-3.542-1.783-7.892-0.454-9.692,3.111l-7.692,15.196l-12.334-12.99
			c-2.733-2.894-7.3-3.015-10.176-0.265c-2.895,2.747-3.002,7.303-0.269,10.197L399.836,246l-10.015,19.848l-2.948-12.009
			c-0.953-3.866-4.837-6.227-8.719-5.29c-3.865,0.953-6.221,4.857-5.287,8.723l4.136,16.848c-0.491,0.355-0.387,0.209-0.757,0.613
			C371.324,280.112,376.289,289.73,385.436,286.357z"/>
	</g>
</g>
<g id="Santa">
	<g id="chapeauSanta">
		<g opacity="0.9">
			<path fill="#FF0000" d="M945.845,252.798c-2.422-2.668-3.896-6.237-3.896-10.134c0-8.349,6.778-15.11,15.127-15.11
				c3.226,0,6.204,1,8.644,2.719c-4.059,5.893-7.563,12.425-10.361,18.81C951.755,249.263,948.465,250.637,945.845,252.798
				L945.845,252.798z M1049.078,282.724c2.388-3.118,4.371-6.729,4.371-10.969v-6.516c0-8.66-6.876-15.73-15.404-16.157
				c-8.497-19.383-23.573-40.108-40.73-40.108c-0.213,0-0.427,0-0.623,0.017c-0.213-0.017-0.425-0.017-0.638-0.017
				c-9.249,0-17.893,6.024-25.21,14.619c-3.881-2.799-8.628-4.452-13.769-4.452c-12.998,0-23.524,10.542-23.524,23.523
				c0,6.763,2.849,12.835,7.4,17.125c-0.623,1.702-0.95,3.535-0.95,5.45v6.516c0,4.239,2.066,7.753,4.321,10.969
				c2.546,3.631,9.315,5.01,9.315,5.01c0.835,0.13,1.702,0.195,2.569,0.195h80.953c0.867,0,1.748,0.059,2.554-0.195
				C1042.208,286.946,1047.168,285.218,1049.078,282.724z M1043.186,271.755c0,3.34-2.686,6.14-6.025,6.14h-80.969
				c-3.323,0-5.927-2.8-5.927-6.14v-6.516c0-3.355,2.587-5.975,5.927-5.975h80.969c3.34,0,6.025,2.619,6.025,5.975V271.755z
				 M1043.186,271.755"/>
		</g>
		<g opacity="0.9">
			<path fill="#00FFFF" d="M953.845,260.798c-2.422-2.668-3.896-6.237-3.896-10.134c0-8.349,6.778-15.11,15.127-15.11
				c3.226,0,6.204,1,8.644,2.719c-4.059,5.893-7.563,12.425-10.361,18.81C959.755,257.263,956.465,258.637,953.845,260.798
				L953.845,260.798z M1057.078,290.724c2.388-3.118,4.371-6.729,4.371-10.969v-6.516c0-8.66-6.876-15.73-15.404-16.157
				c-8.497-19.383-23.573-40.108-40.73-40.108c-0.213,0-0.427,0-0.623,0.017c-0.213-0.017-0.425-0.017-0.638-0.017
				c-9.249,0-17.893,6.024-25.21,14.619c-3.881-2.799-8.628-4.452-13.769-4.452c-12.998,0-23.524,10.542-23.524,23.523
				c0,6.763,2.849,12.835,7.4,17.125c-0.623,1.702-0.95,3.535-0.95,5.45v6.516c0,4.239,2.066,7.753,4.321,10.969
				c2.546,3.631,9.315,5.01,9.315,5.01c0.835,0.13,1.702,0.195,2.569,0.195h80.953c0.867,0,1.748,0.059,2.554-0.195
				C1050.208,294.946,1055.168,293.218,1057.078,290.724z M1051.186,279.755c0,3.34-2.686,6.14-6.025,6.14h-80.969
				c-3.323,0-5.927-2.8-5.927-6.14v-6.516c0-3.355,2.587-5.975,5.927-5.975h80.969c3.34,0,6.025,2.619,6.025,5.975V279.755z
				 M1051.186,279.755"/>
		</g>
	</g>
	<g id="boucheSanta">
		<path opacity="0.9" fill="#FF0000" d="M996.882,326.534c3.29,0,6.287-1.244,8.595-3.24c1.815-1.572,0.572-4.585-1.818-4.585
			h-13.571c-2.389,0-3.633,3.013-1.815,4.585C990.579,325.29,993.575,326.534,996.882,326.534L996.882,326.534z M996.882,326.534"/>
		<path opacity="0.9" fill="#00FFFF" d="M1004.882,334.534c3.29,0,6.287-1.244,8.595-3.24c1.815-1.572,0.572-4.585-1.818-4.585
			h-13.571c-2.389,0-3.633,3.013-1.815,4.585C998.579,333.29,1001.575,334.534,1004.882,334.534L1004.882,334.534z
			 M1004.882,334.534"/>
	</g>
	<g id="teteSanta">
		<path opacity="0.9" fill="#FF0000" d="M1037.202,278.095h-80.969c-7.391,0-10.484,0.611-11.869,4.829
			c-1.232,3.753-1.342,7.857-1.342,11.967c0,7.973,1.898,17.043,5.386,25.914c0.099,0.524,0.263,1.031,0.524,1.523
			c0.081,0.13,0.163,0.294,0.262,0.409c8.658,20.691,25.8,39.665,46.934,39.665h1.195c21.135,0,38.258-18.974,46.935-39.665
			c0.081-0.115,0.163-0.263,0.263-0.409c0.244-0.492,0.425-0.999,0.522-1.508c3.471-8.871,5.387-17.957,5.387-25.93
			c0-4.109-0.236-8.169-1.31-11.967C1047.999,278.956,1043.78,278.095,1037.202,278.095z M997.308,352.384h-1.244
			c-14.799,0-28.485-13.62-36.294-30.056c13.849-6.827,26.34-9.79,36.933-9.79c10.607,0,23.064,2.979,36.914,9.806
			C1025.824,338.78,1012.106,352.384,997.308,352.384L997.308,352.384z M1037.202,288.129c0.867,0,1.719-0.065,2.554-0.195
			c0.377,2.258,0.557,4.6,0.557,6.974c0,5.778-1.079,11.935-2.979,17.958l0,0c-14.945-7.235-28.501-10.166-40.206-10.396h-0.965
			c-11.46,0.229-25.179,3.16-40.125,10.396c-1.915-6.023-2.946-12.18-2.946-17.958c0-2.374,0.212-4.698,0.589-6.974
			c0.835,0.13,1.702,0.195,2.569,0.195H1037.202z"/>
		<path opacity="0.9" fill="#00FFFF" d="M1045.202,286.095h-80.969c-7.391,0-10.484,0.611-11.869,4.829
			c-1.232,3.753-1.342,7.857-1.342,11.967c0,7.973,1.898,17.043,5.386,25.914c0.099,0.524,0.263,1.031,0.524,1.523
			c0.081,0.13,0.163,0.294,0.262,0.409c8.658,20.691,25.8,39.665,46.934,39.665h1.195c21.135,0,38.258-18.974,46.935-39.665
			c0.081-0.115,0.163-0.263,0.263-0.409c0.244-0.492,0.425-0.999,0.522-1.508c3.471-8.871,5.387-17.957,5.387-25.93
			c0-4.109-0.236-8.169-1.31-11.967C1055.999,286.956,1051.78,286.095,1045.202,286.095z M1005.308,360.384h-1.244
			c-14.799,0-28.485-13.62-36.294-30.056c13.849-6.827,26.34-9.79,36.933-9.79c10.607,0,23.064,2.979,36.914,9.806
			C1033.824,346.78,1020.106,360.384,1005.308,360.384L1005.308,360.384z M1045.202,296.129c0.867,0,1.719-0.065,2.554-0.195
			c0.377,2.258,0.557,4.6,0.557,6.974c0,5.778-1.079,11.935-2.979,17.958l0,0c-14.945-7.235-28.501-10.166-40.206-10.396h-0.965
			c-11.46,0.229-25.179,3.16-40.125,10.396c-1.915-6.023-2.946-12.18-2.946-17.958c0-2.374,0.212-4.698,0.589-6.974
			c0.835,0.13,1.702,0.195,2.569,0.195H1045.202z"/>
	</g>
	<g id="yeuxSanta">
		<g>
			<ellipse opacity="0.9" fill="#FF0000" cx="986.88" cy="290.831" rx="5.381" ry="7.583"/>
			<ellipse opacity="0.9" fill="#FF0000" cx="1006.463" cy="290.831" rx="5.381" ry="7.583"/>
		</g>
		<g>
			<ellipse opacity="0.9" fill="#00FFFF" cx="994.88" cy="298.831" rx="5.381" ry="7.583"/>
			<ellipse opacity="0.9" fill="#00FFFF" cx="1014.463" cy="298.831" rx="5.381" ry="7.583"/>
		</g>
	</g>
</g>
<g id="GEN">
	<rect x="611.789" y="621.539" fill="#FFFFFF" width="119.269" height="146.461"/>
	<rect x="1723.254" y="694.42" fill="#FFFFFF" width="130.668" height="160.461"/>
	<g>
		<g opacity="0.7">
			<g>
				<defs>
					<rect id="SVGID_3_" x="631.059" y="640.01" width="20.183" height="20.183"/>
				</defs>
				<clipPath id="SVGID_4_">
					<use xlink:href="#SVGID_3_"  overflow="visible"/>
				</clipPath>
				<polygon clip-path="url(#SVGID_4_)" points="651.241,660.192 631.059,640.01 651.241,640.01 				"/>
			</g>
		</g>
		<g opacity="0.9">
			<g>
				<defs>
					<rect id="SVGID_5_" x="631.059" y="640.01" width="20.183" height="20.183"/>
				</defs>
				<clipPath id="SVGID_6_">
					<use xlink:href="#SVGID_5_"  overflow="visible"/>
				</clipPath>
				<polygon clip-path="url(#SVGID_6_)" points="651.241,660.192 631.059,660.192 631.059,640.01 				"/>
			</g>
		</g>
		<g opacity="0.95">
			<g>
				<defs>
					<rect id="SVGID_7_" x="631.059" y="680.374" width="20.183" height="20.184"/>
				</defs>
				<clipPath id="SVGID_8_">
					<use xlink:href="#SVGID_7_"  overflow="visible"/>
				</clipPath>
				<polygon clip-path="url(#SVGID_8_)" points="651.241,700.558 631.059,680.374 651.241,680.374 				"/>
			</g>
		</g>
		<g opacity="0.4">
			<g>
				<defs>
					<rect id="SVGID_9_" x="631.059" y="680.374" width="20.183" height="20.184"/>
				</defs>
				<clipPath id="SVGID_10_">
					<use xlink:href="#SVGID_9_"  overflow="visible"/>
				</clipPath>
				<polygon clip-path="url(#SVGID_10_)" points="651.241,700.558 631.059,700.558 631.059,680.374 				"/>
			</g>
		</g>
		<g opacity="0.2">
			<g>
				<defs>
					<rect id="SVGID_11_" x="631.059" y="660.192" width="20.183" height="20.182"/>
				</defs>
				<clipPath id="SVGID_12_">
					<use xlink:href="#SVGID_11_"  overflow="visible"/>
				</clipPath>
				<polygon clip-path="url(#SVGID_12_)" points="631.059,680.374 651.241,660.192 631.059,660.192 				"/>
			</g>
		</g>
		<g opacity="0.8">
			<g>
				<defs>
					<rect id="SVGID_13_" x="631.059" y="660.192" width="20.183" height="20.182"/>
				</defs>
				<clipPath id="SVGID_14_">
					<use xlink:href="#SVGID_13_"  overflow="visible"/>
				</clipPath>
				<polygon clip-path="url(#SVGID_14_)" points="631.059,680.374 651.241,680.374 651.241,660.192 				"/>
			</g>
		</g>
		<g opacity="0.7">
			<g>
				<defs>
					<rect id="SVGID_15_" x="631.059" y="700.558" width="20.183" height="20.183"/>
				</defs>
				<clipPath id="SVGID_16_">
					<use xlink:href="#SVGID_15_"  overflow="visible"/>
				</clipPath>
				<polygon clip-path="url(#SVGID_16_)" points="631.059,720.74 651.241,700.558 631.059,700.558 				"/>
			</g>
		</g>
		<g opacity="0.45">
			<g>
				<defs>
					<rect id="SVGID_17_" x="631.059" y="700.558" width="20.183" height="20.183"/>
				</defs>
				<clipPath id="SVGID_18_">
					<use xlink:href="#SVGID_17_"  overflow="visible"/>
				</clipPath>
				<polygon clip-path="url(#SVGID_18_)" points="631.059,720.74 651.241,720.74 651.241,700.558 				"/>
			</g>
		</g>
		<g opacity="0.9">
			<g>
				<defs>
					<rect id="SVGID_19_" x="671.424" y="640.01" width="20.185" height="20.183"/>
				</defs>
				<clipPath id="SVGID_20_">
					<use xlink:href="#SVGID_19_"  overflow="visible"/>
				</clipPath>
				<polygon clip-path="url(#SVGID_20_)" points="691.608,660.192 671.424,640.01 691.608,640.01 				"/>
			</g>
		</g>
		<g opacity="0.45">
			<g>
				<defs>
					<rect id="SVGID_21_" x="671.424" y="640.01" width="20.185" height="20.183"/>
				</defs>
				<clipPath id="SVGID_22_">
					<use xlink:href="#SVGID_21_"  overflow="visible"/>
				</clipPath>
				<polygon clip-path="url(#SVGID_22_)" points="691.608,660.192 671.424,660.192 671.424,640.01 				"/>
			</g>
		</g>
		<g opacity="0.9">
			<g>
				<defs>
					<rect id="SVGID_23_" x="676.455" y="680.417" width="7.886" height="9.922"/>
				</defs>
				<clipPath id="SVGID_24_">
					<use xlink:href="#SVGID_23_"  overflow="visible"/>
				</clipPath>
				<polygon clip-path="url(#SVGID_24_)" points="676.455,680.417 684.341,690.339 684.341,680.417 				"/>
			</g>
		</g>
		<g opacity="0.5">
			<g>
				<defs>
					<rect id="SVGID_25_" x="671.424" y="685.912" width="11.782" height="14.687"/>
				</defs>
				<clipPath id="SVGID_26_">
					<use xlink:href="#SVGID_25_"  overflow="visible"/>
				</clipPath>
				<polygon clip-path="url(#SVGID_26_)" points="671.424,685.912 671.424,700.599 683.206,700.599 				"/>
			</g>
		</g>
		<g opacity="0.3">
			<g>
				<defs>
					<rect id="SVGID_27_" x="671.424" y="660.151" width="20.185" height="17.416"/>
				</defs>
				<clipPath id="SVGID_28_">
					<use xlink:href="#SVGID_27_"  overflow="visible"/>
				</clipPath>
				<polygon clip-path="url(#SVGID_28_)" points="674.231,677.566 684.341,667.458 684.341,660.151 691.566,660.151
					691.608,660.151 671.424,660.151 671.424,673.938 				"/>
			</g>
		</g>
		<g opacity="0.7">
			<g>
				<defs>
					<rect id="SVGID_29_" x="691.566" y="660.192" width="0.042" height="0.04"/>
				</defs>
				<clipPath id="SVGID_30_">
					<use xlink:href="#SVGID_29_"  overflow="visible"/>
				</clipPath>
				<polygon clip-path="url(#SVGID_30_)" fill="#FFFFFF" points="691.566,660.232 691.608,660.232 691.608,660.192 				"/>
			</g>
		</g>
		<g opacity="0.7">
			<g>
				<defs>
					<rect id="SVGID_31_" x="674.231" y="667.458" width="10.109" height="12.959"/>
				</defs>
				<clipPath id="SVGID_32_">
					<use xlink:href="#SVGID_31_"  overflow="visible"/>
				</clipPath>
				<polygon clip-path="url(#SVGID_32_)" points="674.231,677.588 676.455,680.417 684.341,680.417 684.341,667.458 				"/>
			</g>
		</g>
		<g opacity="0.9">
			<g>
				<defs>
					<rect id="SVGID_33_" x="671.424" y="700.558" width="20.185" height="20.183"/>
				</defs>
				<clipPath id="SVGID_34_">
					<use xlink:href="#SVGID_33_"  overflow="visible"/>
				</clipPath>
				<polygon clip-path="url(#SVGID_34_)" points="671.424,720.74 691.608,700.558 671.424,700.558 				"/>
			</g>
		</g>
		<g opacity="0.7">
			<g>
				<defs>
					<rect id="SVGID_35_" x="671.424" y="700.558" width="20.185" height="20.183"/>
				</defs>
				<clipPath id="SVGID_36_">
					<use xlink:href="#SVGID_35_"  overflow="visible"/>
				</clipPath>
				<polygon clip-path="url(#SVGID_36_)" points="671.424,720.74 691.608,720.74 691.608,700.558 				"/>
			</g>
		</g>
		<g opacity="0.3">
			<g>
				<defs>
					<rect id="SVGID_37_" x="651.241" y="640.01" width="20.183" height="20.183"/>
				</defs>
				<clipPath id="SVGID_38_">
					<use xlink:href="#SVGID_37_"  overflow="visible"/>
				</clipPath>
				<polygon clip-path="url(#SVGID_38_)" points="651.241,660.192 671.424,640.01 651.241,640.01 				"/>
			</g>
		</g>
		<g opacity="0.95">
			<g>
				<defs>
					<rect id="SVGID_39_" x="651.241" y="640.01" width="20.183" height="20.183"/>
				</defs>
				<clipPath id="SVGID_40_">
					<use xlink:href="#SVGID_39_"  overflow="visible"/>
				</clipPath>
				<polygon clip-path="url(#SVGID_40_)" points="651.241,660.192 671.424,660.192 671.424,640.01 				"/>
			</g>
		</g>
		<g opacity="0.55">
			<g>
				<defs>
					<rect id="SVGID_41_" x="658.506" y="680.417" width="10.451" height="12.874"/>
				</defs>
				<clipPath id="SVGID_42_">
					<use xlink:href="#SVGID_41_"  overflow="visible"/>
				</clipPath>
				<polygon clip-path="url(#SVGID_42_)" points="668.957,682.863 666.971,680.417 658.506,680.417 658.506,693.291 				"/>
			</g>
		</g>
		<g opacity="0.7">
			<g>
				<defs>
					<rect id="SVGID_43_" x="658.506" y="682.844" width="12.918" height="17.755"/>
				</defs>
				<clipPath id="SVGID_44_">
					<use xlink:href="#SVGID_43_"  overflow="visible"/>
				</clipPath>
				<polygon clip-path="url(#SVGID_44_)" points="668.957,682.844 658.506,693.291 658.506,700.599 671.424,700.599
					671.424,685.912 				"/>
			</g>
		</g>
		<g opacity="0.8">
			<g>
				<defs>
					<rect id="SVGID_45_" x="651.241" y="660.151" width="20.183" height="13.787"/>
				</defs>
				<clipPath id="SVGID_46_">
					<use xlink:href="#SVGID_45_"  overflow="visible"/>
				</clipPath>
				<polygon clip-path="url(#SVGID_46_)" points="660.511,660.151 671.424,673.938 671.424,660.151 651.241,660.151
					651.281,660.151 				"/>
			</g>
		</g>
		<g opacity="0.7">
			<g>
				<defs>
					<rect id="SVGID_47_" x="658.506" y="669.852" width="8.465" height="10.565"/>
				</defs>
				<clipPath id="SVGID_48_">
					<use xlink:href="#SVGID_47_"  overflow="visible"/>
				</clipPath>
				<polygon clip-path="url(#SVGID_48_)" points="666.971,680.417 658.506,669.852 658.506,680.417 				"/>
			</g>
		</g>
		<g opacity="0.7">
			<g>
				<defs>
					<rect id="SVGID_49_" x="651.241" y="660.192" width="0.04" height="0.04"/>
				</defs>
				<clipPath id="SVGID_50_">
					<use xlink:href="#SVGID_49_"  overflow="visible"/>
				</clipPath>
				<polygon clip-path="url(#SVGID_50_)" fill="#FFFFFF" points="651.241,660.192 651.241,660.232 651.281,660.232 				"/>
			</g>
		</g>
		<g opacity="0.5">
			<g>
				<defs>
					<rect id="SVGID_51_" x="651.241" y="700.558" width="20.183" height="20.183"/>
				</defs>
				<clipPath id="SVGID_52_">
					<use xlink:href="#SVGID_51_"  overflow="visible"/>
				</clipPath>
				<polygon clip-path="url(#SVGID_52_)" points="671.424,720.74 651.241,700.558 671.424,700.558 				"/>
			</g>
		</g>
		<g opacity="0.3">
			<g>
				<defs>
					<rect id="SVGID_53_" x="651.241" y="700.558" width="20.183" height="20.183"/>
				</defs>
				<clipPath id="SVGID_54_">
					<use xlink:href="#SVGID_53_"  overflow="visible"/>
				</clipPath>
				<polygon clip-path="url(#SVGID_54_)" points="671.424,720.74 651.241,720.74 651.241,700.558 				"/>
			</g>
		</g>
		<g opacity="0.25">
			<g>
				<defs>
					<rect id="SVGID_55_" x="691.608" y="640.01" width="20.181" height="20.183"/>
				</defs>
				<clipPath id="SVGID_56_">
					<use xlink:href="#SVGID_55_"  overflow="visible"/>
				</clipPath>
				<polygon clip-path="url(#SVGID_56_)" points="691.608,660.192 711.789,640.01 691.608,640.01 				"/>
			</g>
		</g>
		<g opacity="0.7">
			<g>
				<defs>
					<rect id="SVGID_57_" x="691.608" y="640.01" width="20.181" height="20.183"/>
				</defs>
				<clipPath id="SVGID_58_">
					<use xlink:href="#SVGID_57_"  overflow="visible"/>
				</clipPath>
				<polygon clip-path="url(#SVGID_58_)" points="691.608,660.192 711.789,660.192 711.789,640.01 				"/>
			</g>
		</g>
		<g opacity="0.5">
			<g>
				<defs>
					<rect id="SVGID_59_" x="691.608" y="680.374" width="20.181" height="20.184"/>
				</defs>
				<clipPath id="SVGID_60_">
					<use xlink:href="#SVGID_59_"  overflow="visible"/>
				</clipPath>
				<polygon clip-path="url(#SVGID_60_)" points="691.608,700.558 711.789,680.374 691.608,680.374 				"/>
			</g>
		</g>
		<g opacity="0.7">
			<g>
				<defs>
					<rect id="SVGID_61_" x="691.608" y="680.374" width="20.181" height="20.184"/>
				</defs>
				<clipPath id="SVGID_62_">
					<use xlink:href="#SVGID_61_"  overflow="visible"/>
				</clipPath>
				<polygon clip-path="url(#SVGID_62_)" points="691.608,700.558 711.789,700.558 711.789,680.374 				"/>
			</g>
		</g>
		<g opacity="0.25">
			<g>
				<defs>
					<rect id="SVGID_63_" x="691.608" y="660.192" width="20.181" height="20.182"/>
				</defs>
				<clipPath id="SVGID_64_">
					<use xlink:href="#SVGID_63_"  overflow="visible"/>
				</clipPath>
				<polygon clip-path="url(#SVGID_64_)" points="711.789,680.374 691.608,660.192 711.789,660.192 				"/>
			</g>
		</g>
		<g opacity="0.9">
			<g>
				<defs>
					<rect id="SVGID_65_" x="691.608" y="660.192" width="20.181" height="20.182"/>
				</defs>
				<clipPath id="SVGID_66_">
					<use xlink:href="#SVGID_65_"  overflow="visible"/>
				</clipPath>
				<polygon clip-path="url(#SVGID_66_)" points="711.789,680.374 691.608,680.374 691.608,660.192 				"/>
			</g>
		</g>
		<g opacity="0.45">
			<g>
				<defs>
					<rect id="SVGID_67_" x="691.608" y="700.558" width="20.181" height="20.183"/>
				</defs>
				<clipPath id="SVGID_68_">
					<use xlink:href="#SVGID_67_"  overflow="visible"/>
				</clipPath>
				<polygon clip-path="url(#SVGID_68_)" points="711.789,720.74 691.608,700.558 711.789,700.558 				"/>
			</g>
		</g>
		<g opacity="0.85">
			<g>
				<defs>
					<rect id="SVGID_69_" x="691.608" y="700.558" width="20.181" height="20.183"/>
				</defs>
				<clipPath id="SVGID_70_">
					<use xlink:href="#SVGID_69_"  overflow="visible"/>
				</clipPath>
				<polygon clip-path="url(#SVGID_70_)" points="711.789,720.74 691.608,720.74 691.608,700.558 				"/>
			</g>
		</g>
		<path fill="#383838" d="M636.588,733.303c-0.475-0.454-1.181-0.707-1.795-0.707c-1.515,0-2.433,1.151-2.433,2.604
			c0,1.16,0.676,2.36,2.433,2.36c0.555,0,1.04-0.12,1.595-0.565v-1.248h-1.808v-1.191h3.028v2.977
			c-0.698,0.797-1.575,1.271-2.815,1.271c-2.654,0-3.734-1.744-3.734-3.603c0-1.987,1.242-3.825,3.734-3.825
			c0.947,0,1.896,0.363,2.623,1.081L636.588,733.303z"/>
		<path fill="#383838" d="M645.227,738.642h-1.522l-2.05-2.363h-1.352v2.363h-1.333v-7.075c1.122,0,2.241,0.012,3.362,0.012
			c1.664,0.01,2.542,1.119,2.542,2.34c0,0.969-0.444,1.947-1.787,2.22l2.14,2.411V738.642z M640.303,732.818v2.26h2.029
			c0.847,0,1.209-0.564,1.209-1.129c0-0.565-0.373-1.131-1.209-1.131H640.303z"/>
		<path fill="#383838" d="M651.251,737.31h-3.692l-0.605,1.332h-1.443l3.168-7.063h1.453l3.169,7.063h-1.452L651.251,737.31z
			 M649.405,733.061l-1.312,3.007h2.622L649.405,733.061z"/>
		<polygon fill="#383838" points="659.002,736.33 659.002,731.578 660.334,731.578 660.334,738.642 659.255,738.642
			655.501,733.938 655.501,738.642 654.168,738.642 654.168,731.578 655.248,731.578 		"/>
		<path fill="#383838" d="M668.316,735.049c0.029,1.785-1.06,3.593-3.532,3.593h-2.776v-7.063h2.776
			C667.205,731.578,668.285,733.303,668.316,735.049 M663.33,737.358h1.454c1.604,0,2.239-1.17,2.21-2.321
			c-0.031-1.099-0.676-2.199-2.21-2.199h-1.454V737.358z"/>
		<polygon fill="#383838" points="674.876,738.642 669.587,738.642 669.587,731.578 674.876,731.578 674.876,732.868
			670.909,732.868 670.909,734.494 674.734,734.494 674.734,735.735 670.909,735.735 670.909,737.329 674.876,737.329 		"/>
		<path fill="#383838" d="M684.029,738.642h-5.29v-7.063h5.29v1.29h-3.968v1.626h3.825v1.241h-3.825v1.594h3.968V738.642z
			 M683.049,729.428h-1.453l-0.746,1.373v0.059h1.09l1.109-1.381V729.428z"/>
		<path fill="#383838" d="M691.416,737.752c-0.726,0.717-1.667,1.05-2.685,1.05c-2.625,0-3.735-1.808-3.745-3.643
			c-0.011-1.847,1.191-3.725,3.745-3.725c0.958,0,1.867,0.364,2.593,1.081l-0.889,0.857c-0.463-0.454-1.091-0.666-1.704-0.666
			c-1.707,0-2.443,1.271-2.433,2.452c0.01,1.171,0.687,2.392,2.433,2.392c0.613,0,1.312-0.252,1.774-0.717L691.416,737.752z"/>
		<path fill="#383838" d="M699.115,735.148c-0.019,1.828-1.141,3.653-3.623,3.653s-3.632-1.785-3.632-3.643
			c0-2.229,1.613-3.725,3.662-3.725C697.934,731.455,699.136,733.313,699.115,735.148 M695.492,737.581
			c1.666,0,2.291-1.251,2.311-2.411c0.02-1.181-0.655-2.494-2.28-2.523c-1.505,0-2.391,1.131-2.353,2.533
			C693.202,736.34,693.827,737.581,695.492,737.581"/>
		<polygon fill="#383838" points="701.697,731.578 701.697,737.41 705.332,737.41 705.332,738.642 700.367,738.642 700.367,731.578
					"/>
		<polygon fill="#383838" points="711.629,738.642 706.341,738.642 706.341,731.578 711.629,731.578 711.629,732.868
			707.662,732.868 707.662,734.494 711.486,734.494 711.486,735.735 707.662,735.735 707.662,737.329 711.629,737.329 		"/>
		<path fill="#383838" d="M637.37,747.182c0.03,1.785-1.06,3.592-3.532,3.592h-2.775v-7.064h2.775
			C636.26,743.709,637.34,745.435,637.37,747.182 M632.385,749.491h1.453c1.604,0,2.24-1.173,2.21-2.321
			c-0.029-1.1-0.676-2.199-2.21-2.199h-1.453V749.491z"/>
		<path fill="#383838" d="M644.747,743.719v4.045c0,2.091-1.282,3.16-3.058,3.16c-1.695,0-3.139-1.029-3.139-3.16v-4.045h1.322
			v4.045c0,1.273,0.726,1.949,1.826,1.949c1.099,0,1.725-0.736,1.725-1.949v-4.045H644.747z"/>
		<polygon fill="#383838" points="653.606,748.461 653.606,743.709 654.939,743.709 654.939,750.773 653.858,750.773
			650.105,746.07 650.105,750.773 648.773,750.773 648.773,743.709 649.854,743.709 		"/>
		<path fill="#383838" d="M662.719,743.719v4.045c0,2.091-1.281,3.16-3.056,3.16c-1.697,0-3.14-1.029-3.14-3.16v-4.045h1.322v4.045
			c0,1.273,0.725,1.949,1.826,1.949c1.1,0,1.725-0.736,1.725-1.949v-4.045H662.719z"/>
		<polygon fill="#383838" points="670.449,745.656 668.147,748.724 667.887,748.724 665.635,745.646 665.635,750.783
			664.304,750.783 664.304,743.719 665.838,743.719 668.047,746.756 670.257,743.719 671.78,743.719 671.78,750.783
			670.449,750.783 		"/>
		<path fill="#383838" d="M678.744,750.773h-5.288v-7.064h5.288V745h-3.966v1.625h3.824v1.242h-3.824v1.594h3.966V750.773z
			 M677.766,741.559h-1.453l-0.747,1.373v0.061h1.091l1.109-1.382V741.559z"/>
		<path fill="#383838" d="M686.424,750.773h-1.524l-2.048-2.361H681.5v2.361h-1.332v-7.075c1.119,0,2.24,0.011,3.359,0.011
			c1.665,0.01,2.543,1.12,2.543,2.34c0,0.97-0.443,1.948-1.785,2.221l2.139,2.412V750.773z M681.5,744.951v2.258h2.027
			c0.848,0,1.211-0.564,1.211-1.127c0-0.565-0.373-1.131-1.211-1.131H681.5z"/>
		<rect x="687.514" y="743.709" fill="#383838" width="1.321" height="7.064"/>
		<path fill="#383838" d="M697.361,747.149c0.012,0.808-0.199,1.646-0.654,2.302l0.84,0.828l-0.941,0.937l-0.855-0.847
			c-0.535,0.344-1.212,0.524-2.01,0.524c-2.512,0-3.623-1.828-3.631-3.663c-0.012-1.846,1.148-3.693,3.631-3.693
			S697.333,745.333,697.361,747.149 M691.42,747.26c0.019,1.162,0.787,2.401,2.32,2.401c1.595,0,2.361-1.343,2.311-2.551
			c-0.052-1.143-0.645-2.374-2.311-2.374C692.076,744.736,691.398,746.07,691.42,747.26"/>
		<path fill="#383838" d="M704.73,743.719v4.045c0,2.091-1.281,3.16-3.06,3.16c-1.694,0-3.138-1.029-3.138-3.16v-4.045h1.322v4.045
			c0,1.273,0.727,1.949,1.828,1.949c1.1,0,1.725-0.736,1.725-1.949v-4.045H704.73z"/>
		<polygon fill="#383838" points="711.601,750.773 706.315,750.773 706.315,743.709 711.601,743.709 711.601,745 707.636,745
			707.636,746.625 711.46,746.625 711.46,747.867 707.636,747.867 707.636,749.461 711.601,749.461 		"/>
	</g>
</g>
</svg>
