<?xml version="1.0" encoding="utf-8"?>
<!DOCTYPE svg PUBLIC "-//W3C//DTD SVG 1.1//EN" "http://www.w3.org/Graphics/SVG/1.1/DTD/svg11.dtd">
<svg 	version="1.1" id="Layer_1" xmlns="http://www.w3.org/2000/svg"
			xmlns:xlink="http://www.w3.org/1999/xlink"
			x="0px" y="0px"
			width="100%" height="100%"
			viewBox="0 0 60.8 72"
			xml:space="preserve">

			<g>

				<path 	id="foot"
						d="M16.809,64.512c-1.308,1.224-1.875,2.844-1.473,4.246c0.684,2.379,4.289,3.797,7.57,2.98
						c1.344-0.336,2.586-0.992,3.492-1.848c0.907,0.855,2.149,1.512,3.493,1.848c3.281,0.816,6.886-0.602,7.574-2.977
						c0.39-1.364-0.141-2.93-1.367-4.146c-2.719,1.867-6.015,2.967-9.574,2.967C22.902,67.583,19.555,66.439,16.809,64.512z"
				/>

				<path 	id="catbody"

						onmouseover="
							toggleClass('heart','beat');
							toggleClass('leftEye','eyeSmall');
							toggleClass('rightEye','eyeSmall');
							toggleClass('nose','shakeHeadVertical');
							toggleClass('head','shakeHeadVertical');
						"
						onmouseout="
							toggleClass('heart','beat');
							toggleClass('leftEye','eyeSmall');
							toggleClass('rightEye','eyeSmall');
							toggleClass('nose','shakeHeadVertical');
							toggleClass('head','shakeHeadVertical');
						"

						d="M43.199,51.199c-0.001-0.773-0.084-1.544-0.204-2.31c-0.168-1.683-0.587-3.293-1.218-4.791
						c0.022-0.021,0.045-0.04,0.068-0.061c-0.07-0.153-0.138-0.31-0.213-0.461c-0.024,0.02-0.052,0.037-0.077,0.057
						c-0.467-1.019-1.038-1.979-1.69-2.876c-2.467,2.407-7.628,4.068-13.615,4.068c-5.843,0-10.906-1.581-13.439-3.894
						c-1.704,2.404-2.798,5.273-3.03,8.387c-0.056,0.521-0.096,1.048-0.096,1.584c0,3.367,1.016,6.496,2.748,9.118
						c1.185,1.716,2.698,3.224,4.48,4.385c-0.038,0.033-0.069,0.071-0.105,0.105c2.747,1.928,6.093,3.071,9.715,3.071
						c3.559,0,6.855-1.1,9.574-2.967c-0.076-0.075-0.146-0.153-0.227-0.226c1.715-1.109,3.211-2.523,4.387-4.148
						c0.052,0.024,0.104,0.059,0.155,0.084c1.212-1.75,2.092-3.74,2.561-5.884c-0.039-0.018-0.075-0.038-0.114-0.056
						C43.086,53.34,43.199,52.27,43.199,51.199z"
				/>

				<path 	id="tail"

						onmouseover="
							toggleClass('head','shakeHead');
							toggleClass('nose','shakeHead');
							toggleClass('rightEye','eyeBottomRight');
							toggleClass('leftEye','eyeBottomRight');
						"

						onmouseout="
							toggleClass('head','shakeHead');
							toggleClass('nose','shakeHead');
							toggleClass('rightEye','eyeBottomRight');
							toggleClass('leftEye','eyeBottomRight');
						"

						d="M57.523,49.602c-1.672,0.039-3.16,1.598-3.125,3.27c0.031,3.805-1.191,5.504-2.098,6.055
						c-0.91,0.551-2.098,0.621-3.977-0.879c-1.229-0.98-2.97-2.51-5.351-3.604c-0.469,2.144-1.349,4.134-2.561,5.884
						c1.32,0.647,2.607,1.676,3.919,2.721c3.371,2.695,7.856,3.434,11.289,1.348c3.434-2.086,5.223-6.331,5.18-11.578
						C60.809,51.109,59.23,49.559,57.523,49.602z"
				/>

			</g>

			<g>

				<path 	id="leftEar"

						onmouseover="
							toggleClass('head','rotateLeft');
							toggleClass('rightEye','eyeTopLeft');
							toggleClass('leftEye','eyeTopLeft');
						"
						onmouseout="
							toggleClass('head','rotateLeft');
							toggleClass('rightEye','eyeTopLeft');
							toggleClass('leftEye','eyeTopLeft');
						"

						fill="white"
						d="M12.547,13.887L8,4.801v13.402C9.266,16.574,10.801,15.113,12.547,13.887z"
				/>

				<path 	id="rightEar"

						onmouseover="
							toggleClass('head','rotateRight');
							toggleClass('rightEye','eyeTopRight');
							toggleClass('leftEye','eyeTopRight');
						"

						onmouseout="
							toggleClass('head','rotateRight');
							toggleClass('rightEye','eyeTopRight');
							toggleClass('leftEye','eyeTopRight');
						"

						fill="white"
						d="M44.801,18.23V4.801l-4.555,9.105C41.992,15.137,43.535,16.598,44.801,18.23z"
				/>

				<path 	id="rightEyeBkg"
						d="M38.082,36.527c3.195-0.793,5.617-3.183,5.91-6.058c0.02-0.176-0.031-0.356-0.137-0.496
						c-1.344-1.754-3.566-2.727-5.941-2.77H37.91c-0.789-0.015-1.602,0.074-2.398,0.27c-3.195,0.793-5.617,3.183-5.91,6.058
						c-0.02,0.176,0.031,0.356,0.136,0.496C31.531,36.363,34.883,37.316,38.082,36.527z"
				/>

				<path 	id="leftEyeBkg"
						fill="white"
						d="M17.285,27.473c-0.801-0.196-1.609-0.285-2.402-0.27c-2.379,0.043-4.598,1.016-5.942,2.77
						c-0.105,0.14-0.156,0.32-0.14,0.496c0.293,2.875,2.715,5.265,5.91,6.058c3.203,0.79,6.555-0.164,8.344-2.5
						c0.105-0.14,0.156-0.32,0.14-0.496C22.902,30.656,20.48,28.266,17.285,27.473z"
				/>

				<g>
						<ellipse 	id="leftEye"
									cx="17.799"
									cy="31.201"
									rx="1.911"
									ry="1.911"
						/>

						<ellipse 	id="rightEye"
									cx="34.798"
									cy="31.201"
									rx="1.911"
									ry="1.911"
						/>
				</g>

				<path 	id="head"
						d="M48.852,39.711c1.93,0.883,3.52,1.887,3.52,1.887l0.43-0.676c0,0-1.629-1.031-3.617-1.941
						c-0.797-0.363-1.652-0.703-2.495-0.961c1.378-2.625,2.101-5.52,2.112-8.417c-0.004-2.528-0.551-5.055-1.602-7.403V2.438
						c0-1.297-0.953-2.469-1.98-2.438c-0.32,0.012-0.641,0.121-0.922,0.324l-13.324,9.703c-1.503-0.281-3.039-0.425-4.575-0.425
						c-1.527,0.007-3.058,0.152-4.554,0.441L8.5,0.324C8.219,0.121,7.898,0.012,7.578,0C6.551-0.027,5.602,1.145,5.602,2.438v19.781
						C4.551,24.563,4.008,27.078,4,29.602c0.008,2.898,0.734,5.793,2.109,8.417c-0.843,0.258-1.699,0.598-2.496,0.961
						C1.625,39.891,0,40.922,0,40.922l0.426,0.676c0,0,1.59-1.004,3.519-1.887c0.821-0.375,1.7-0.723,2.539-0.965
						c0.297,0.52,0.625,1.023,0.977,1.52c-1.016,0.258-2.078,0.673-3.047,1.117c-1.988,0.91-3.613,1.941-3.613,1.941L1.227,44
						c0,0,1.589-1.004,3.519-1.891c0.965-0.441,2.016-0.852,2.981-1.09C7.82,40.996,7.906,40.984,8,40.965
						c0.398,0.52,0.828,1.02,1.281,1.5c-0.312,0.043-0.625,0.102-0.945,0.18c-1.039,0.258-2.129,0.684-3.121,1.141
						c-1.992,0.91-3.613,1.938-3.613,1.938l0.425,0.676c0,0,1.586-1.004,3.52-1.887c0.965-0.441,2.015-0.852,2.98-1.09
						c0.539-0.133,1.043-0.203,1.489-0.207c0.398,0.379,0.816,0.742,1.246,1.094c-0.003,0.006-0.005,0.013-0.008,0.019
						c3.978,2.86,9.096,4.59,14.691,4.59c6.073,0,11.588-2.031,15.687-5.34c0.075,0.151,0.143,0.308,0.213,0.461
						c0.313-0.269,0.627-0.538,0.924-0.823c0.449,0.008,0.957,0.07,1.5,0.207c0.965,0.238,2.016,0.648,2.98,1.09
						c1.934,0.883,3.52,1.887,3.52,1.887l0.43-0.676c0,0-1.625-1.027-3.617-1.938c-0.992-0.457-2.082-0.883-3.117-1.141
						c-0.312-0.078-0.621-0.133-0.922-0.176c0.453-0.48,0.879-0.98,1.277-1.5c0.086,0.02,0.164,0.031,0.25,0.051
						c0.965,0.238,2.016,0.648,2.98,1.09C49.984,42.996,51.57,44,51.57,44L52,43.324c0,0-1.625-1.031-3.617-1.941
						c-0.977-0.444-2.039-0.867-3.062-1.125c0.352-0.492,0.68-1,0.98-1.516C47.141,38.984,48.023,39.332,48.852,39.711z M8,4.801
						l4.547,9.086C10.801,15.113,9.266,16.574,8,18.203V4.801z M23.055,34.027c-1.789,2.336-5.141,3.29-8.344,2.5
						c-3.195-0.793-5.617-3.183-5.91-6.058c-0.016-0.176,0.035-0.356,0.14-0.496c1.344-1.754,3.563-2.727,5.942-2.77
						c0.793-0.015,1.601,0.074,2.402,0.27c3.195,0.793,5.617,3.183,5.91,6.058C23.211,33.707,23.16,33.887,23.055,34.027z
						 M38.082,36.527c-3.199,0.79-6.551-0.164-8.344-2.5c-0.105-0.14-0.156-0.32-0.137-0.496c0.293-2.875,2.715-5.265,5.91-6.058
						c0.797-0.196,1.609-0.285,2.398-0.27h0.004c2.375,0.043,4.598,1.016,5.941,2.77c0.105,0.14,0.156,0.32,0.137,0.496
						C43.699,33.344,41.277,35.734,38.082,36.527z M44.801,18.23c-1.266-1.632-2.809-3.093-4.555-4.324l4.555-9.105V18.23z"
				/>

			</g>

			<path 	fill="#FFFFFF"
					id="nose"

					onmouseover="
						toggleClass('nose','shakeElement');
						toggleClass('leftEye','crazyEyeLeft');
						toggleClass('rightEye','crazyEyeRight');
					"
					onmouseout="
						toggleClass('nose','shakeElement');
						toggleClass('leftEye','crazyEyeLeft');
						toggleClass('rightEye','crazyEyeRight');
					"

					d="M26.398,38.398c1.258,0,2.403,0.762,2.403,1.602c0,0.836-1.145,1.598-2.403,1.598
					C25.145,41.598,24,40.836,24,40C24,39.16,25.145,38.398,26.398,38.398z"
			/>

			<path 	id="heart"
					d="M34.436,56.581c-0.211-0.237-0.738-0.698-1.172-1.026c-1.285-0.97-1.46-1.109-1.981-1.591
					c-0.962-0.885-1.37-1.774-1.368-2.98c0-0.589,0.041-0.815,0.205-1.162c0.28-0.589,0.692-1.026,1.219-1.294
					c0.373-0.189,0.557-0.273,1.181-0.277c0.651-0.003,0.788,0.072,1.172,0.283c0.467,0.257,0.947,0.805,1.047,1.193l0.062,0.24
					l0.15-0.331c0.855-1.871,3.583-1.843,4.533,0.047c0.301,0.6,0.334,1.879,0.066,2.6c-0.348,0.94-1.002,1.657-2.516,2.756
					c-0.992,0.721-2.115,1.811-2.193,1.964C34.75,57.18,34.836,57.029,34.436,56.581z"
			/>



<script>

	// function to toggle class
	function toggleClass(objId,styleClass) {
		document.getElementById(objId).classList.toggle(styleClass);
	}

</script>

<style>

	/*
		BASIC OBJECT INITIALISATION
	*/

	#rightEye 		{ transition: all 500ms; }
	#leftEye 		{ transition: all 500ms; }
	#transition 	{ transition: all 500ms; }
	#rightEyeBkg 	{ fill: white; }
	#heart 			{ }


	/*
		EYES MOVING EFFECTS
	*/

	.eyeTopRight
		{
			fill: red;
			transform: translateX(55%) translateY(-45%);
		}

	.eyeTopLeft
		{
			fill: red;
			transform: translateX(-55%) translateY(-45%);
		}

	.eyeSmall
		{
			fill: blue;
			rx: 1;
			ry: 3;
		}

	.eyeBottomRight
		{
			fill: red;
			transform: translateX(65%) translateY(45%);
		}

	.crazyEyeRight
		{
			fill: red;
			rx: 2.2;
			ry: 2.2;
			transform: translateX(-60%) translateY(60%);
		}

	.crazyEyeLeft
		{
			fill: red;
			rx: 2.2;
			ry: 2.2;
			transform: translateX(60%) translateY(60%);
		}




	/*
		HEAD MOVING EFFECTS
	*/

	.rotateRight 	{ transform: rotate(2deg); }
	.rotateLeft 	{ transform: rotate(-2deg); }


	/*
		CLASS TRIGGING ANIMATION
	*/

	.shakeElement
		{
			animation-name: shake;
			animation-duration: 200ms;
			animation-iteration-count: infinite;
		}

	.shakeHead
		{
			animation-name: shakeHead;
			animation-duration: 1s;
			animation-iteration-count: infinite;
		}

	.shakeHeadVertical
		{
			animation-name: shakeHeadVertical;
			animation-duration: 1s;
			animation-iteration-count: infinite;
		}

	.beat
		{
			fill: #CC0000;
			animation-name: heartbeat;
			animation-duration: 1s;
			animation-iteration-count: infinite;
		}

	/*
		ANIMATION AVAILABLE
	*/



	@keyframes heartbeat
		{
			0% 		{ transform: translate(0,0) scale( 1 ); }
			50%		{ transform: translate(80%,100%) scale( .80 ); }
			100%	{ transform: translate(0,0) scale( 1 ); }
		}

	@keyframes shake
		{
			0% 		{ transform: translate(-0.05em,0); }
			50% 	{ transform: translate(0.05em,0); }
			100% 	{ transform: translate(-0.05em,0); }
		}

	@keyframes shakeHead
		{
			0% 		{ transform: translate(0em,0); }
			25% 	{ transform: translate(-0.1em,0); }
			50% 	{ transform: translate(0.1em,0); }
			75% 	{ transform: translate(-0.1em,0); }
			100% 	{ transform: translate(0,0); }
		}

	@keyframes shakeHeadVertical
		{
			0% 		{ transform: translate(0,0); }
			25% 	{ transform: translate(0,-0.1em); }
			50% 	{ transform: translate(0,0.1em); }
			75% 	{ transform: translate(0,-0.1em); }
			100% 	{ transform: translate(0,0); }
		}

</style>

</svg>
